<svg width="49" height="49" viewBox="0 0 49 49" fill="none" xmlns="http://www.w3.org/2000/svg">
<g clip-path="url(#clip0_128_284)">
<path d="M14 27.5263V3.08571C14 1.38152 15.3815 0 17.0857 0H29.6026C31.6063 0 33.0786 1.88005 32.5983 3.8254L28.2248 21.5381C27.7908 23.2957 29.121 24.9943 30.9314 24.9943C33.0412 24.9943 34.3864 27.247 33.3858 29.1044L25.4931 43.7553C23.9403 46.6376 19.5588 45.4361 19.6934 42.1649L20.0419 33.6951C20.1126 31.9786 18.7401 30.5486 17.0222 30.5486C15.3531 30.5486 14 29.1955 14 27.5263Z" fill="white"/>
<g filter="url(#filter0_d_128_284)">
<path d="M7.25708 6.79993L39.6571 39.1999" stroke="url(#paint0_linear_128_284)" stroke-width="3.08571" stroke-linecap="round"/>
</g>
</g>
<defs>
<filter id="filter0_d_128_284" x="1.71411" y="1.25708" width="43.4858" height="43.4857" filterUnits="userSpaceOnUse" color-interpolation-filters="sRGB">
<feFlood flood-opacity="0" result="BackgroundImageFix"/>
<feColorMatrix in="SourceAlpha" type="matrix" values="0 0 0 0 0 0 0 0 0 0 0 0 0 0 0 0 0 0 127 0" result="hardAlpha"/>
<feOffset/>
<feGaussianBlur stdDeviation="2"/>
<feComposite in2="hardAlpha" operator="out"/>
<feColorMatrix type="matrix" values="0 0 0 0 0.131649 0 0 0 0 0.273123 0 0 0 0 0.207491 0 0 0 1 0"/>
<feBlend mode="normal" in2="BackgroundImageFix" result="effect1_dropShadow_128_284"/>
<feBlend mode="normal" in="SourceGraphic" in2="effect1_dropShadow_128_284" result="shape"/>
</filter>
<linearGradient id="paint0_linear_128_284" x1="38.9998" y1="38.4999" x2="38.9998" y2="13.9999" gradientUnits="userSpaceOnUse">
<stop stop-color="white"/>
<stop offset="1" stop-color="white"/>
</linearGradient>
<clipPath id="clip0_128_284">
<rect width="49" height="49" fill="white"/>
</clipPath>
</defs>
</svg>
