<svg width="293" height="293" viewBox="0 0 293 293" fill="none" xmlns="http://www.w3.org/2000/svg">
<path opacity="0.4" d="M5 240C5 266.51 26.4903 288 53 288H59.7266V293H53C23.7289 293 0 269.271 0 240V233.273H5V240ZM293 240L292.996 240.685C292.63 269.64 269.043 293 240 293H233.273V288H240C266.51 288 288 266.51 288 240V233.273H293V240ZM59.7266 5H53C26.4903 5 5 26.4903 5 53V59.7266H0V53C4.57109e-06 23.9574 23.3598 0.370432 52.3154 0.00390625L53 0H59.7266V5ZM240.685 0.00390625C269.64 0.370437 293 23.9574 293 53V59.7266H288V53C288 26.4903 266.51 5 240 5H233.273V0H240L240.685 0.00390625Z" fill="white"/>
</svg>
